<svg width="1280" height="1096" viewBox="0 0 1280 1096" fill="none" xmlns="http://www.w3.org/2000/svg">
<mask id="mask0_356_3454" style="mask-type:luminance" maskUnits="userSpaceOnUse" x="0" y="0" width="1280" height="1096">
<path d="M1280 0.122559H0V1096H1280V0.122559Z" fill="white"/>
</mask>
<g mask="url(#mask0_356_3454)">
<path d="M5.76001 1339.97C35.4133 1206 151.893 1083.95 271.68 1061.07C328.427 1050.25 386.773 1058.74 440.747 1027.23C499.2 992.988 536 920.523 554.027 851.893C572.053 783.264 576.533 713.813 596.587 645.457C616.64 577.102 658.027 505.733 718.187 477.788C760.32 458.199 804.373 463.131 847.04 447.652C905.6 426.419 954.133 369.57 991.04 310.667C1027.84 251.763 1057.17 187.792 1098.67 132.45C1159.89 50.8069 1246.93 -7.82254 1334.08 -26.0415" stroke="#C7E7F2" stroke-miterlimit="10"/>
<path d="M-4.69336 1311.75C17.4933 1217.78 81.6 1129.84 159.467 1077.37C192 1055.45 227.093 1039.7 262.507 1032.71C297.92 1025.73 333.973 1026.41 368.853 1021.34C390.187 1018.33 410.987 1013.12 431.147 1002.58C465.813 984.357 492.907 953.125 513.707 916.002C527.467 891.482 538.133 864.496 546.027 837.921C556.16 803.538 562.667 768.333 569.493 733.264C575.893 700.525 582.507 667.649 592.747 635.183C601.6 607.239 613.973 578.883 629.76 553.404C652.16 517.377 681.387 487.24 716.587 471.761C739.84 461.624 763.52 458.747 787.307 455.87C806.827 453.542 826.24 451.213 845.44 445.049C880.213 433.679 911.467 410.529 939.093 381.762C957.973 362.173 975.147 339.981 990.507 317.242C1013.01 283.955 1032.85 248.613 1054.29 213.956C1068.8 190.531 1083.84 167.244 1100.91 145.326C1125.65 113.409 1154.03 84.642 1184.64 60.3957C1231.36 23.1359 1283.09 -3.8501 1334.72 -16.8636" stroke="#C7E7F2" stroke-miterlimit="10"/>
<path d="M-15.1467 1283.67C8.31994 1190.25 72.5333 1102.71 150.293 1049.84C182.827 1027.65 217.707 1011.62 253.227 1004.36C288.64 997.097 325.013 997.508 359.787 993.536C381.12 991.07 401.707 987.098 421.547 977.92C455.787 962.029 482.453 933.948 504 899.016C518.187 876.003 529.387 849.976 537.92 824.086C548.907 790.662 556.16 756.278 563.733 721.758C570.773 689.567 578.027 657.101 588.8 625.184C598.08 597.65 610.88 569.705 627.093 544.774C650.133 509.569 679.68 480.528 714.987 466.008C738.347 456.419 762.133 453.953 785.813 451.761C805.333 449.981 824.747 448.2 843.947 442.583C878.72 432.584 909.973 411.351 937.92 384.502C956.907 366.146 974.4 345.461 990.08 323.955C1013.12 292.585 1033.6 258.75 1055.68 225.189C1070.61 202.449 1086.08 179.847 1103.25 158.203C1128.32 126.834 1156.91 98.0669 1187.41 73.4096C1234.03 35.6019 1284.8 7.24603 1335.68 -7.6853" stroke="#C7E7F2" stroke-miterlimit="10"/>
<path d="M-25.6001 1255.45C-0.746767 1162.44 63.5732 1075.45 141.12 1022.17C173.547 999.837 208.427 983.398 243.947 975.864C279.467 968.33 315.947 968.604 350.613 965.727C372.053 963.947 392.32 961.07 411.84 953.262C445.547 939.7 472 914.906 494.293 881.893C508.907 860.249 520.64 835.181 529.813 810.113C541.546 777.784 549.76 743.949 557.867 709.977C565.653 678.197 573.44 646.279 584.746 614.773C594.56 587.513 607.787 560.253 624.32 535.869C647.893 501.486 677.866 473.678 713.28 459.98C736.64 451.076 760.533 449.021 784.213 447.24C803.733 445.871 823.146 444.638 842.24 439.843C876.906 431.213 908.373 411.898 936.427 387.104C955.627 370.118 973.333 350.803 989.44 330.529C1012.91 300.941 1034.13 268.749 1056.85 236.284C1072.21 214.366 1088 192.312 1105.39 170.942C1130.88 139.984 1159.57 111.354 1189.87 86.4228C1236.27 48.0671 1286.29 18.2044 1336.21 1.49231" stroke="#C7E7F2" stroke-miterlimit="10"/>
<path d="M-36.0532 1227.23C-9.91989 1134.63 54.5068 1048.19 132.053 994.494C164.48 972.029 199.253 955.317 234.88 947.509C270.4 939.701 307.2 939.975 341.654 937.92C363.094 936.687 383.147 934.906 402.347 928.468C435.52 917.372 461.76 895.729 484.693 864.77C499.733 844.633 512.107 820.524 521.813 796.004C534.293 764.634 543.253 731.484 552.213 698.197C560.533 666.964 569.067 635.321 580.907 604.499C591.147 577.65 604.8 550.801 621.76 527.103C645.867 493.541 676.267 466.829 711.787 453.953C735.254 445.597 759.147 444.09 782.72 442.857C802.24 441.898 821.547 441.35 840.64 437.241C875.307 429.981 906.774 412.584 935.147 389.707C954.454 374.091 972.48 356.146 989.014 337.105C1013.01 309.434 1034.77 278.749 1058.13 247.38C1073.81 226.147 1090.03 204.641 1107.73 183.819C1133.65 153.408 1162.45 124.642 1192.53 99.4365C1238.83 60.3958 1288 29.3003 1337.07 10.6704" stroke="#C7E7F2" stroke-miterlimit="10"/>
<path d="M-46.5068 1199.01C-19.0935 1106.82 45.4398 1020.93 122.88 966.823C155.2 944.221 189.973 927.098 225.6 919.016C261.226 910.934 298.133 911.071 332.48 910.112C353.92 909.564 373.76 908.879 392.746 903.811C425.493 895.044 451.306 876.551 475.093 847.784C490.453 829.017 503.466 806.003 513.813 782.168C527.146 751.894 536.96 719.292 546.56 686.69C555.626 656.005 564.693 624.773 577.066 594.362C587.84 567.924 601.92 541.486 619.2 518.336C643.946 485.596 674.666 459.98 710.293 448.062C733.866 440.254 757.76 439.295 781.333 438.611C800.853 438.2 820.16 438.063 839.253 434.775C873.813 428.885 905.386 413.405 933.973 392.447C953.493 378.2 971.733 361.625 988.586 343.817C1013.12 317.927 1035.52 288.886 1059.52 258.613C1075.63 238.202 1092.16 217.243 1110.08 196.696C1136.43 166.696 1165.33 138.066 1195.2 112.587C1241.28 72.9984 1289.6 40.5331 1337.92 19.9854" stroke="#C7E7F2" stroke-miterlimit="10"/>
<path d="M-57.0667 1170.93C-28.3733 1079.29 36.2667 993.81 113.707 939.29C146.027 916.55 180.587 899.016 216.32 890.797C251.947 882.578 289.173 881.756 323.307 882.441C344.747 882.989 364.373 882.989 383.04 879.29C415.253 872.852 440.747 857.647 465.28 830.798C481.067 813.538 494.613 791.346 505.6 768.333C519.68 739.155 530.347 707.238 540.587 675.046C550.293 644.91 560 614.088 573.013 584.225C584.32 558.198 598.72 532.171 616.427 509.706C641.707 477.651 672.853 453.268 708.587 442.309C732.267 435.186 756.16 434.364 779.733 434.501C799.253 434.638 818.56 434.912 837.547 432.309C872.107 427.652 903.68 414.227 932.587 395.323C952.213 382.447 970.88 367.242 988.053 350.666C1013.01 326.557 1036.16 299.16 1060.8 270.119C1077.33 250.531 1094.19 229.983 1112.32 209.846C1138.99 180.258 1168.11 151.628 1197.76 125.875C1243.73 85.6011 1291.2 51.7659 1338.56 29.4374" stroke="#C7E7F2" stroke-miterlimit="10"/>
<path d="M-67.52 1142.71C-37.5467 1051.48 27.3067 966.55 104.533 911.619C136.747 888.742 171.307 870.797 207.147 862.304C242.88 853.811 280.32 853.537 314.24 854.633C335.787 855.318 354.987 856.962 373.44 854.496C405.12 850.387 430.293 838.469 455.573 813.675C471.787 797.784 485.76 776.689 497.6 754.36C512.427 726.141 523.947 694.909 534.933 663.402C545.28 633.677 555.733 603.403 569.173 573.951C580.907 548.198 595.733 522.719 613.867 500.802C639.68 469.569 671.253 446.282 707.093 436.145C730.88 429.57 754.88 429.433 778.347 429.981C797.867 430.391 817.067 431.487 836.053 429.57C870.507 426.282 902.187 414.775 931.307 397.789C951.04 386.282 970.027 372.447 987.627 357.105C1013.12 334.913 1036.8 309.023 1062.08 281.078C1079.04 262.174 1096.21 242.311 1114.56 222.586C1141.65 193.545 1170.88 164.915 1200.32 138.888C1246.19 98.0666 1292.8 62.8615 1339.31 38.6152" stroke="#C7E7F2" stroke-miterlimit="10"/>
<path d="M-77.9731 1114.49C-46.6131 1023.67 18.2402 939.427 95.3602 883.811C127.467 860.66 162.027 842.578 197.867 833.674C233.707 824.907 271.254 824.496 305.067 826.688C326.614 828.058 345.6 830.661 363.734 829.702C394.987 828.058 419.734 819.291 445.867 796.415C462.4 782.031 477.014 761.757 489.494 740.251C505.067 713.128 517.44 682.443 529.174 651.622C540.267 622.444 551.254 592.581 565.227 563.678C577.494 538.335 592.747 513.404 611.2 492.035C637.654 461.624 669.654 439.432 705.494 430.255C729.387 424.227 753.387 424.501 776.747 425.734C796.267 426.693 815.467 428.2 834.347 427.104C868.8 425.049 900.374 415.597 929.92 400.529C949.867 390.392 969.067 377.926 986.987 363.68C1012.91 343.269 1037.33 319.023 1063.25 292.174C1080.64 274.092 1098.13 254.64 1116.8 235.325C1144.21 206.695 1173.55 178.203 1202.88 151.765C1248.53 110.395 1294.29 73.8203 1339.95 47.5193" stroke="#C7E7F2" stroke-miterlimit="10"/>
<path d="M-88.4265 1086.27C-55.7865 995.864 9.17348 912.166 86.2935 856.14C118.4 832.852 152.853 814.359 188.693 805.318C224.533 796.277 262.4 795.866 296 798.88C317.547 800.798 336.32 804.633 354.133 805.044C384.853 805.729 409.28 800.113 436.16 779.428C453.013 766.415 468.267 747.237 481.387 726.278C497.707 700.114 510.933 670.115 523.413 639.841C535.147 611.211 546.773 581.759 561.28 553.404C574.08 528.472 589.653 503.952 608.533 483.267C635.52 453.679 667.947 432.583 703.893 424.227C727.787 418.748 751.893 419.57 775.253 421.213C794.773 422.583 813.973 424.638 832.853 424.364C867.307 423.679 898.88 416.145 928.64 402.994C948.693 394.227 968.107 383.132 986.56 370.118C1013.01 351.625 1038.08 328.886 1064.53 303.133C1082.35 285.736 1100.27 266.969 1119.04 247.928C1146.88 219.846 1176.32 191.216 1205.55 164.641C1251.09 122.587 1296 84.642 1340.8 56.5602" stroke="#C7E7F2" stroke-miterlimit="10"/>
<path d="M-98.8799 1058.06C-64.9599 968.193 0.106792 884.907 77.1201 828.469C109.12 805.045 143.467 786.141 179.52 776.826C215.467 767.511 253.44 766.963 286.933 771.072C308.48 773.675 327.04 778.607 344.64 780.25C374.933 783.264 398.827 780.935 426.56 762.305C443.733 750.799 459.627 732.443 473.387 712.306C490.453 687.238 504.533 657.786 517.653 628.197C530.133 600.116 542.293 571.075 557.333 543.13C570.56 518.61 586.56 494.5 605.867 474.364C633.387 445.46 666.24 425.597 702.187 418.2C726.187 413.268 750.293 414.638 773.653 416.83C793.173 418.748 812.267 421.35 831.147 421.624C865.494 422.309 897.174 416.693 927.254 405.597C947.414 398.063 967.147 388.474 986.027 376.694C1012.91 359.981 1038.61 338.886 1065.81 314.365C1084.05 297.79 1102.29 279.571 1121.28 260.804C1149.55 233.134 1179.2 204.641 1208.11 177.655C1253.55 135.19 1297.6 95.7379 1341.44 65.7383" stroke="#C7E7F2" stroke-miterlimit="10"/>
<path d="M-109.333 1029.97C-74.1333 940.522 -8.95992 857.784 68.0534 800.935C100.053 777.374 134.293 758.196 170.347 748.607C206.293 739.018 244.587 738.47 277.867 743.402C299.52 746.689 317.76 752.579 335.04 755.73C364.8 761.073 388.373 761.894 416.96 745.319C434.56 735.182 450.987 717.922 465.387 698.471C483.2 674.361 498.24 645.731 512 616.554C525.12 588.883 537.92 560.253 553.493 532.993C567.253 508.884 583.68 485.322 603.307 465.734C631.467 437.652 664.64 418.885 700.693 412.447C724.8 408.2 748.907 409.844 772.267 412.72C791.787 415.049 810.88 418.2 829.654 419.296C864 421.351 895.68 417.652 925.973 408.474C946.347 402.31 966.293 393.954 985.6 383.543C1013.01 368.611 1039.36 349.16 1067.2 325.735C1085.76 309.982 1104.43 292.174 1123.73 273.955C1152.43 246.695 1182.08 218.339 1210.88 190.942C1256.21 147.792 1299.31 107.108 1342.4 75.1902" stroke="#C7E7F2" stroke-miterlimit="10"/>
<path d="M-119.787 1001.75C-83.3066 912.715 -17.92 830.524 58.88 773.264C90.7734 749.566 125.013 729.977 161.067 720.114C197.12 710.251 235.627 709.566 268.693 715.594C290.347 719.566 308.373 726.552 325.333 730.936C354.56 738.607 377.707 742.717 407.147 728.196C425.067 719.429 442.027 703.128 457.173 684.498C475.733 661.485 491.627 633.403 506.133 604.91C519.893 577.787 533.44 549.568 549.44 522.719C563.733 498.884 580.48 475.87 600.533 456.83C629.227 429.57 662.827 411.899 698.987 406.282C723.2 402.584 747.413 404.775 770.667 408.2C790.187 411.077 809.28 414.775 827.947 416.556C862.187 419.844 893.973 418.063 924.587 410.94C945.067 406.145 965.333 399.159 984.96 389.981C1012.8 376.967 1039.89 359.022 1068.27 336.694C1087.25 321.626 1106.24 304.503 1125.76 286.558C1154.77 259.846 1184.64 231.49 1213.23 203.819C1258.35 160.121 1300.69 117.929 1342.83 84.2312" stroke="#C7E7F2" stroke-miterlimit="10"/>
<path d="M-130.24 973.536C-92.4797 885.044 -26.9864 803.264 49.7069 745.593C81.6003 721.758 115.734 701.758 151.894 691.621C187.947 681.485 226.667 680.8 259.627 687.786C281.28 692.306 299.094 700.525 315.734 706.279C344.534 716.416 367.147 723.539 397.547 711.21C415.787 703.813 433.387 688.608 449.174 670.526C468.48 648.471 485.227 621.074 500.374 593.266C514.88 566.691 528.96 538.883 545.6 512.582C560.32 489.158 577.6 466.556 597.974 448.2C627.307 421.762 661.227 405.186 697.494 400.529C721.814 397.378 746.027 400.118 769.174 404.091C788.694 407.378 807.787 411.625 826.454 414.227C860.694 418.885 892.48 419.022 923.307 413.816C943.894 410.392 964.48 404.775 984.534 396.83C1012.8 385.598 1040.53 369.296 1069.65 348.064C1089.07 333.817 1108.37 317.105 1128.11 299.571C1157.55 273.27 1187.52 244.914 1215.89 216.969C1260.91 172.723 1302.4 129.162 1343.68 93.5463" stroke="#C7E7F2" stroke-miterlimit="10"/>
<path d="M-140.8 945.317C-101.653 857.236 -36.1601 776.004 40.5333 717.922C72.3199 693.813 106.347 673.539 142.613 663.265C178.773 652.855 217.707 652.033 250.453 659.978C272.107 665.183 289.707 674.361 306.027 681.621C334.293 694.087 356.48 704.361 387.733 694.087C406.293 688.06 424.533 673.813 441.067 656.553C461.12 635.595 478.72 608.746 494.613 581.486C509.76 555.459 524.48 528.062 541.653 502.171C556.907 479.158 574.507 456.967 595.307 439.295C625.173 413.679 659.52 398.2 695.893 394.502C720.32 392.036 744.533 395.049 767.68 399.57C787.2 403.406 806.187 408.2 824.853 411.488C859.093 417.515 890.773 419.57 922.027 416.419C942.827 414.364 963.627 410.118 984.107 403.406C1012.8 393.954 1041.28 379.296 1071.04 359.159C1090.88 345.598 1110.61 329.571 1130.45 312.311C1160.32 286.558 1190.4 258.202 1218.56 229.983C1263.47 185.052 1304 140.258 1344.43 102.587" stroke="#C7E7F2" stroke-miterlimit="10"/>
<path d="M-151.253 917.098C-110.827 829.428 -45.2268 748.744 31.3599 690.251C63.0399 666.005 97.0666 645.457 133.333 634.773C169.6 624.225 208.747 623.266 241.387 632.17C263.147 638.06 280.427 648.334 296.533 656.827C324.267 671.622 346.027 684.909 378.133 676.964C397.013 672.306 415.787 659.156 433.067 642.581C453.867 622.581 472.427 596.554 488.96 569.842C504.853 544.363 520.107 517.377 537.813 492.035C553.6 469.432 571.627 447.789 592.747 430.529C623.253 405.734 657.92 391.351 694.4 388.474C718.827 386.556 743.147 390.118 766.293 395.186C785.813 399.433 804.8 404.775 823.36 408.748C857.493 416.145 889.28 420.118 920.747 418.885C941.653 418.063 962.773 415.323 983.573 409.844C1012.8 402.173 1041.92 389.159 1072.21 370.255C1092.48 357.516 1112.53 342.036 1132.69 325.187C1162.99 299.845 1193.17 271.626 1221.12 242.996C1265.81 197.518 1305.6 151.217 1345.17 111.765" stroke="#C7E7F2" stroke-miterlimit="10"/>
<path d="M-161.707 889.016C-120 801.757 -54.1865 721.621 22.1868 662.717C53.8668 638.334 87.7868 617.375 124.053 606.554C160.32 595.732 199.68 594.773 232.213 604.499C253.973 611.074 271.04 622.444 286.827 632.307C314.133 649.43 335.467 665.868 368.427 659.978C387.627 656.553 407.04 644.498 424.96 628.745C446.507 609.704 465.92 584.362 483.2 558.198C499.733 533.13 515.733 506.692 533.867 481.898C550.187 459.706 568.534 438.473 589.974 421.898C621.014 397.926 656.107 384.638 692.694 382.721C717.227 381.351 741.547 385.46 764.694 391.077C784.214 395.871 803.2 401.762 821.76 406.419C855.894 415.186 887.68 420.939 919.467 421.761C940.48 422.309 961.92 420.802 983.147 416.693C1012.8 410.803 1042.56 399.433 1073.6 381.625C1094.29 369.707 1114.67 354.639 1135.04 338.201C1165.65 313.406 1196.05 285.051 1223.89 256.284C1268.48 210.12 1307.41 162.586 1346.03 121.217" stroke="#C7E7F2" stroke-miterlimit="10"/>
<path d="M-172.16 860.797C-129.173 774.086 -63.2532 694.361 13.1201 635.046C44.6934 610.526 78.6134 589.157 114.987 578.061C151.36 566.965 190.933 565.869 223.253 576.691C245.013 583.951 261.867 596.28 277.333 607.65C304.107 627.101 325.013 646.553 358.827 642.992C378.347 640.937 398.293 629.841 416.96 614.773C439.253 596.828 459.52 572.033 477.44 546.554C494.72 522.034 511.253 496.007 529.92 471.624C546.667 449.706 565.547 429.022 587.307 412.994C618.987 389.844 654.507 377.789 691.093 376.693C715.733 376.008 740.053 380.529 763.093 386.693C782.613 391.899 801.493 398.337 820.053 403.816C854.08 413.816 885.973 421.624 917.973 424.501C939.2 426.419 960.747 426.282 982.507 423.405C1012.59 419.296 1043.09 409.57 1074.77 392.858C1095.89 381.625 1116.59 367.241 1137.17 351.077C1168.21 326.831 1198.61 298.338 1226.35 269.297C1270.72 222.449 1308.8 173.682 1346.67 130.395" stroke="#C7E7F2" stroke-miterlimit="10"/>
<path d="M-182.613 832.579C-138.347 746.278 -72.3199 667.101 3.94672 607.376C35.5201 582.719 69.3334 561.075 105.707 549.568C142.08 538.199 181.867 537.103 214.08 548.746C235.84 556.691 252.373 570.116 267.627 582.719C293.973 604.636 314.347 626.965 349.12 625.732C368.96 625.047 389.547 615.047 408.853 600.664C431.787 583.677 453.013 559.705 471.68 534.774C489.6 510.802 506.773 485.185 525.973 461.35C543.253 439.844 562.453 419.707 584.64 404.228C616.853 381.762 652.8 370.94 689.493 370.666C714.24 370.529 738.667 375.461 761.6 382.31C781.12 388.063 800 394.913 818.453 401.214C852.48 412.584 884.373 422.309 916.693 427.104C938.027 430.255 959.893 431.624 981.973 429.844C1012.59 427.515 1043.73 419.433 1075.95 403.817C1097.49 393.406 1118.51 379.57 1139.41 363.817C1170.88 339.982 1201.39 311.626 1228.91 282.311C1273.07 234.914 1310.4 184.641 1347.41 139.573" stroke="#C7E7F2" stroke-miterlimit="10"/>
<path d="M-193.067 804.36C-147.413 718.47 -81.3866 639.841 -5.11996 579.705C26.3467 554.774 60.0534 532.856 96.5334 521.212C133.013 509.569 173.013 508.473 205.013 521.075C226.88 529.705 243.093 544.226 258.027 558.198C283.84 582.445 303.787 609.979 339.413 608.746C359.573 608.061 380.8 600.39 400.747 586.828C424.427 570.801 446.613 547.513 465.92 523.13C484.48 499.706 502.4 474.501 522.133 451.076C539.947 429.981 559.573 410.255 582.08 395.46C614.933 373.817 651.2 364.228 687.893 364.776C712.747 365.324 737.173 370.666 760.107 377.926C779.627 384.091 798.507 391.625 816.853 398.474C850.773 411.351 882.667 422.72 915.307 429.57C936.747 434.09 958.933 436.693 981.44 436.282C1012.48 435.734 1044.27 429.296 1077.23 414.775C1099.09 405.049 1120.64 391.762 1141.65 376.42C1173.55 353.132 1204.16 324.639 1231.47 295.051C1275.52 246.969 1312 195.463 1348.05 148.477" stroke="#C7E7F2" stroke-miterlimit="10"/>
<path d="M-203.52 776.278C-156.587 690.799 -90.4534 612.855 -14.2934 552.171C17.1733 527.103 50.7733 504.774 87.36 492.857C123.947 480.939 164.053 479.843 195.947 493.405C217.813 502.72 233.813 518.199 248.533 533.678C273.813 560.253 293.44 588.609 329.813 591.897C350.293 593.677 372.053 585.869 392.747 573.13C417.173 558.061 440.213 535.459 460.16 511.761C479.467 488.884 497.92 464.09 518.187 441.213C536.533 420.529 556.48 401.351 579.413 386.967C612.8 366.283 649.493 357.653 686.293 359.023C711.253 360.118 735.68 366.009 758.613 373.817C778.133 380.529 796.907 388.611 815.36 396.145C849.28 410.255 881.173 423.679 914.133 432.446C935.68 438.2 958.187 442.309 981.12 443.131C1012.59 444.364 1045.12 439.57 1078.61 426.282C1100.91 417.378 1122.77 404.638 1144 389.57C1176.32 366.831 1207.04 338.338 1234.13 308.475C1277.97 259.846 1313.6 206.97 1348.91 158.066" stroke="#C7E7F2" stroke-miterlimit="10"/>
<path d="M-214.08 748.059C-165.867 663.129 -99.5198 585.595 -23.5732 524.5C7.78683 499.295 41.3868 476.555 77.9735 464.501C114.56 452.309 154.987 451.213 186.667 465.597C208.533 475.596 224.32 492.172 238.72 508.884C263.573 537.788 282.667 569.157 320 574.636C340.8 577.787 363.2 570.938 384.64 558.883C409.813 544.774 433.707 522.993 454.4 499.843C474.347 477.514 493.44 453.131 514.24 430.665C533.013 410.392 553.493 391.625 576.747 377.926C610.773 358.064 647.787 350.529 684.693 352.858C709.653 354.502 734.187 360.94 757.12 369.296C776.64 376.557 795.413 385.05 813.76 393.406C847.68 408.885 879.573 424.09 912.747 435.049C934.507 442.172 957.227 447.515 980.48 449.706C1012.48 452.72 1045.65 449.569 1079.79 437.378C1102.51 429.159 1124.69 417.104 1146.13 402.31C1178.88 379.981 1209.71 351.625 1236.59 321.352C1280.32 272.174 1315.09 217.928 1349.44 166.97" stroke="#C7E7F2" stroke-miterlimit="10"/>
<path d="M-224.533 719.84C-175.04 635.32 -108.587 558.335 -32.6401 496.829C-1.28011 471.487 32.2132 448.473 68.7999 436.008C105.493 423.542 146.027 422.309 177.6 437.788C199.467 448.473 215.04 466.144 229.12 484.226C253.44 515.459 272.213 549.705 310.293 557.65C331.52 562.034 354.347 556.28 376.533 545.047C402.347 531.897 427.307 510.801 448.64 488.199C469.333 466.418 489.067 442.446 510.293 420.528C529.6 400.666 550.4 382.447 574.08 369.159C608.64 350.118 646.08 343.68 683.093 346.968C708.16 349.296 732.693 356.146 755.52 365.05C775.04 372.721 793.813 381.899 812.053 390.94C845.867 407.789 877.867 424.912 911.36 437.788C933.227 446.282 956.267 452.994 979.947 456.418C1012.37 461.213 1046.19 459.706 1081.07 448.61C1104.21 441.213 1126.72 429.706 1148.48 415.323C1181.55 393.542 1212.48 365.05 1239.25 334.639C1282.88 284.777 1316.8 229.161 1350.29 176.422" stroke="#C7E7F2" stroke-miterlimit="10"/>
<path d="M-234.987 691.621C-184.213 607.513 -117.653 531.075 -41.8135 469.021C-10.5602 443.542 22.8265 420.118 59.6265 407.378C96.3198 394.638 137.173 393.406 168.533 409.707C190.4 421.077 205.76 439.706 219.52 459.295C243.413 492.993 261.76 530.116 300.693 540.39C322.24 546.007 345.706 541.349 368.533 530.938C395.093 518.747 420.907 498.473 442.987 476.418C464.427 455.186 484.693 431.624 506.453 410.255C526.293 390.803 547.52 372.995 571.52 360.392C606.72 342.173 644.48 336.831 681.6 340.941C706.773 343.817 731.306 351.214 754.133 360.666C773.653 368.885 792.32 378.474 810.666 388.337C844.48 406.556 876.48 425.46 910.186 440.391C932.266 450.117 955.52 458.199 979.626 462.994C1012.59 469.432 1047.04 469.706 1082.45 459.706C1106.03 453.131 1128.96 442.035 1150.83 428.063C1184.32 406.693 1215.36 378.337 1242.03 347.516C1285.44 297.105 1318.51 240.12 1351.15 185.463" stroke="#C7E7F2" stroke-miterlimit="10"/>
<path d="M-245.44 663.402C-193.28 579.842 -126.72 503.815 -50.8799 441.35C-19.7333 415.734 13.6534 391.899 50.4534 379.022C87.2534 366.146 128.213 364.776 159.467 382.036C181.333 394.09 196.48 413.816 210.027 434.638C233.387 470.665 251.413 510.801 291.093 523.267C312.96 530.253 337.067 526.555 360.533 516.966C387.84 505.733 414.507 486.144 437.227 464.638C459.307 443.953 480.213 420.802 502.507 399.844C522.88 380.803 544.427 363.406 568.853 351.488C604.587 333.954 642.773 329.845 680 334.913C705.28 338.338 729.92 346.146 752.64 356.146C772.16 364.776 790.827 375.05 809.067 385.46C842.773 405.049 874.88 425.734 908.907 442.857C931.093 453.816 954.667 463.405 979.2 469.432C1012.59 477.651 1047.79 479.432 1083.84 470.665C1107.84 464.775 1131.09 454.364 1153.17 440.665C1187.09 419.844 1218.24 391.351 1244.69 360.392C1288 309.297 1320.21 251.078 1352 194.504" stroke="#C7E7F2" stroke-miterlimit="10"/>
<path d="M-255.893 635.321C-202.453 552.171 -135.68 476.692 -60.0533 413.816C-28.9067 387.926 4.37334 363.954 41.1733 350.666C77.9733 337.516 119.147 336.283 150.293 354.228C172.16 366.968 187.093 387.789 200.32 409.981C223.147 448.336 240.853 491.35 281.28 506.281C303.573 514.5 328.107 511.897 352.32 503.13C380.373 492.856 408 473.953 431.36 453.131C454.08 432.857 475.733 410.255 498.453 389.844C519.36 371.214 541.333 354.228 566.08 342.858C602.347 326.146 641.067 323.132 678.293 329.16C703.68 333.269 728.32 341.488 751.04 352.036C770.56 361.214 789.227 371.899 807.36 383.132C841.067 403.953 873.173 426.693 907.413 445.734C929.813 458.062 953.6 468.884 978.453 476.281C1012.37 486.144 1048.11 489.706 1084.91 482.172C1109.33 477.103 1132.91 467.24 1155.31 453.816C1189.65 433.405 1220.91 405.049 1247.15 373.68C1290.35 322.037 1321.71 262.311 1352.53 203.956" stroke="#C7E7F2" stroke-miterlimit="10"/>
<path d="M-266.347 607.102C-211.627 524.363 -144.747 449.433 -69.2267 386.146C-38.1867 360.118 -4.90668 335.735 32 322.311C68.9066 308.886 110.293 307.516 141.227 326.557C201.067 363.269 206.507 462.172 271.68 489.295C320.533 509.706 380.8 479.295 425.707 441.487C470.613 403.68 510.933 356.694 563.52 334.091C625.6 307.379 693.653 320.256 749.547 347.653C805.44 375.05 853.013 416.008 906.133 448.337C959.253 480.528 1021.44 504.5 1086.19 493.131C1149.12 482.172 1206.72 438.885 1249.71 386.557C1292.69 334.228 1323.2 273.27 1353.28 212.997" stroke="#C7E7F2" stroke-miterlimit="10"/>
<path d="M-256.853 599.568C-202.88 517.651 -137.066 443.405 -62.7197 380.255C-30.933 353.269 3.307 328.338 41.067 315.051C77.7603 302.174 118.614 301.078 149.334 319.845C208.534 356.009 215.36 452.309 279.68 479.432C318.827 496.007 365.12 480.391 405.227 454.501C414.72 448.337 423.894 441.624 432.534 434.638C477.334 398.2 517.547 352.173 569.707 329.571C605.12 314.229 642.347 311.352 678.187 316.557C704.534 320.393 730.027 328.475 753.494 339.297C808.854 364.639 856.214 402.995 908.907 433.679C924.054 442.446 939.947 450.528 956.374 457.515C997.334 474.775 1041.81 484.501 1087.47 477.24C1095.57 476.008 1103.57 474.09 1111.47 471.898C1164.37 456.556 1212.48 419.844 1250.13 375.872C1293.12 325.461 1324.27 265.736 1354.13 206.011" stroke="#C7E7F2" stroke-miterlimit="10"/>
<path d="M-247.253 592.033C-194.027 510.801 -129.28 437.241 -56.1068 374.365C-23.6801 346.42 11.6266 320.804 50.3466 307.79C86.8266 295.462 127.147 294.503 157.76 312.996C216.427 348.475 224.64 442.446 288 469.432C326.72 486.007 372.48 471.624 412.373 446.693C421.867 440.802 430.933 434.364 439.573 427.515C484.16 392.31 524.373 347.516 576 324.776C610.987 309.297 647.787 305.872 683.2 310.119C709.12 313.27 734.4 320.53 757.653 330.393C812.373 353.543 859.52 389.433 911.893 418.337C926.933 426.556 942.72 434.364 959.04 440.939C999.893 457.377 1043.84 467.24 1089.07 460.528C1097.07 459.432 1104.96 457.651 1112.75 455.597C1165.01 441.35 1213.01 406.693 1250.77 364.228C1293.87 315.735 1325.65 257.106 1355.2 197.928" stroke="#C7E7F2" stroke-miterlimit="10"/>
<path d="M-237.76 584.362C-185.28 503.952 -121.707 430.939 -49.7067 368.337C-16.64 339.571 19.84 313.27 59.3067 300.393C95.5733 288.612 135.36 287.927 165.76 306.146C223.787 341.077 233.387 432.446 296 459.432C334.4 476.007 379.52 462.72 419.307 439.021C428.693 433.405 437.76 427.104 446.4 420.529C490.773 386.556 531.093 342.858 582.08 320.119C616.747 304.639 653.013 300.667 688 303.955C713.6 306.42 738.56 312.859 761.6 321.763C815.787 342.858 862.72 376.145 914.56 403.405C929.6 411.214 945.173 418.474 961.387 424.775C1002.03 440.391 1045.55 450.254 1090.24 444.364C1098.13 443.405 1106.03 441.898 1113.71 439.843C1165.44 426.693 1213.12 394.09 1251.09 353.132C1294.29 306.557 1326.61 249.161 1355.95 190.531" stroke="#C7E7F2" stroke-miterlimit="10"/>
<path d="M-228.16 576.828C-176.427 497.24 -113.92 424.775 -43.0933 362.31C-9.27992 332.584 28.1601 305.598 68.5867 292.996C104.64 281.763 143.893 281.215 174.08 299.16C231.573 333.406 242.453 422.446 304.213 449.295C342.293 465.871 386.773 453.816 426.453 431.076C435.84 425.734 444.907 419.707 453.44 413.405C497.6 380.666 537.92 338.064 588.373 315.187C622.613 299.708 658.453 295.051 693.013 297.379C718.293 299.16 742.933 304.777 765.653 312.722C819.2 331.626 865.92 362.584 917.44 387.926C932.373 395.186 947.947 402.036 963.947 408.063C1004.37 422.994 1047.47 432.72 1091.63 427.515C1099.52 426.556 1107.2 425.323 1114.88 423.542C1166.08 411.625 1213.44 380.94 1251.63 341.488C1294.83 296.694 1327.79 240.668 1356.91 182.586" stroke="#C7E7F2" stroke-miterlimit="10"/>
<path d="M-218.667 569.294C-167.68 490.391 -106.347 418.611 -36.5867 356.42C-2.13342 325.735 36.3732 298.064 77.7599 285.736C113.6 275.051 152.32 274.777 182.293 292.448C239.253 326.146 251.413 412.583 312.427 439.432C350.08 456.145 394.133 445.049 433.6 423.405C442.88 418.2 451.947 412.583 460.48 406.419C504.533 375.05 544.747 333.406 594.773 310.53C628.693 295.051 664 289.708 698.133 291.215C722.987 292.311 747.307 297.105 769.92 304.092C822.933 320.667 869.333 349.434 920.533 372.995C935.36 379.844 950.827 386.282 966.72 391.899C1006.93 406.145 1049.71 415.734 1093.33 411.351C1101.12 410.529 1108.8 409.433 1116.37 407.789C1166.93 396.967 1214.08 368.337 1252.37 330.256C1295.68 287.379 1329.28 232.586 1358.08 175.052" stroke="#C7E7F2" stroke-miterlimit="10"/>
<path d="M-209.173 561.76C-158.933 483.679 -98.6667 412.309 -30.1867 350.529C4.90665 318.749 44.48 290.667 86.72 278.475C122.347 268.202 160.427 268.339 190.293 285.736C246.613 318.749 260.16 402.858 320.32 429.57C357.653 446.282 401.067 436.419 440.32 415.871C449.6 410.94 458.56 405.46 467.093 399.707C510.933 369.57 551.147 329.023 600.64 306.146C634.133 290.667 669.013 284.777 702.613 285.325C727.147 285.873 751.147 289.708 773.547 295.873C826.027 310.393 872.213 336.557 922.987 358.474C937.707 364.776 953.067 370.803 968.853 376.146C1008.85 389.57 1051.2 399.159 1094.29 395.46C1101.97 394.775 1109.65 393.817 1117.12 392.447C1167.15 382.858 1213.87 356.146 1252.48 319.571C1295.79 278.475 1330.03 224.914 1358.61 168.066" stroke="#C7E7F2" stroke-miterlimit="10"/>
<path d="M-199.573 554.226C-150.08 476.829 -90.9866 406.145 -23.5733 344.502C12.2667 311.763 52.8001 282.996 96.0001 271.078C131.413 261.352 168.96 261.626 198.72 278.749C254.507 311.215 269.333 392.721 328.64 419.433C365.653 436.145 408.427 427.515 447.573 407.926C456.747 403.268 465.707 398.063 474.24 392.447C517.867 363.543 558.08 324.091 607.04 301.215C640.107 285.735 674.56 279.16 707.733 278.749C731.947 278.612 755.627 281.626 777.813 286.831C829.653 299.16 875.733 322.858 926.08 342.995C940.693 348.885 955.947 354.502 971.627 359.433C1011.41 372.173 1053.33 381.625 1095.89 378.611C1103.47 378.063 1111.04 377.241 1118.51 376.008C1168 367.652 1214.4 342.858 1253.23 307.79C1296.53 268.612 1331.41 216.284 1359.79 159.984" stroke="#C7E7F2" stroke-miterlimit="10"/>
<path d="M-190.08 546.554C-141.333 469.98 -83.4131 399.707 -17.0665 338.475C19.4135 304.776 61.0135 275.325 105.067 263.681C140.267 254.366 177.28 255.051 206.827 271.9C261.974 303.68 278.187 382.858 336.747 409.433C373.334 426.282 415.68 418.748 454.613 400.255C463.787 395.871 472.64 390.94 481.174 385.46C524.694 357.926 564.8 319.434 613.227 296.42C645.974 280.941 679.894 273.681 712.64 272.448C736.427 271.489 759.894 273.681 781.76 278.064C833.067 288.201 878.827 309.434 928.854 327.927C943.467 333.269 958.507 338.475 974.08 343.132C1013.65 355.05 1055.15 364.502 1097.28 362.31C1104.85 361.899 1112.32 361.214 1119.68 360.118C1168.64 352.858 1214.72 330.119 1253.76 296.557C1297.07 259.297 1332.59 208.202 1360.75 152.449" stroke="#C7E7F2" stroke-miterlimit="10"/>
<path d="M-180.48 539.021C-132.48 463.268 -75.7333 393.406 -10.4533 332.585C26.6667 297.927 69.3333 267.791 114.347 256.421C149.333 247.654 185.813 248.476 215.147 265.051C269.76 296.284 287.253 372.858 344.96 399.433C381.227 416.282 422.933 409.981 461.76 392.447C470.827 388.337 479.68 383.543 488.213 378.474C531.52 352.173 571.627 314.777 619.52 291.763C651.84 276.284 685.333 268.339 717.653 266.284C741.12 264.777 764.267 266.01 785.92 269.435C836.587 277.38 882.24 296.147 931.733 312.859C946.24 317.79 961.28 322.448 976.64 326.831C1016.11 337.927 1057.07 347.379 1098.67 345.872C1106.13 345.598 1113.49 345.05 1120.85 344.228C1169.17 338.064 1215.04 317.379 1254.29 285.325C1297.71 249.846 1333.87 199.983 1361.6 144.916" stroke="#C7E7F2" stroke-miterlimit="10"/>
<path d="M-170.987 531.486C-123.733 456.419 -68.1601 387.104 -4.05347 326.557C33.7065 290.941 77.5465 260.12 123.413 249.024C158.08 240.668 194.133 241.901 223.253 258.202C277.333 288.749 296.107 362.995 352.96 389.433C388.907 406.282 429.973 401.214 468.693 384.639C477.76 380.803 486.613 376.283 495.04 371.351C538.133 346.283 578.24 309.982 625.707 286.969C657.707 271.352 690.667 262.996 722.453 259.846C745.6 257.654 768.32 258.065 789.867 260.667C840 266.558 885.333 282.722 934.506 297.79C948.906 302.174 963.84 306.557 979.2 310.53C1018.45 320.941 1058.99 330.256 1100.05 329.571C1107.41 329.434 1114.77 329.023 1122.03 328.338C1169.81 323.406 1215.36 304.64 1254.72 274.092C1298.13 240.394 1334.93 191.901 1362.45 137.381" stroke="#C7E7F2" stroke-miterlimit="10"/>
<path d="M-161.387 523.952C-114.88 449.706 -60.4801 380.803 2.55993 320.667C40.9599 283.955 85.8666 252.585 132.587 241.901C167.04 233.955 202.56 235.462 231.467 251.626C284.907 281.626 305.173 353.269 361.173 379.707C396.693 396.556 437.333 392.584 475.733 377.241C484.693 373.68 493.547 369.433 501.973 364.776C544.853 340.94 585.067 305.735 631.893 282.722C663.467 267.106 696 258.065 727.36 254.092C750.187 251.216 772.587 250.805 793.92 252.448C843.413 256.147 888.64 269.982 937.387 283.27C951.68 287.242 966.506 291.078 981.76 294.777C1020.8 304.366 1061.01 313.407 1101.55 313.681C1108.91 313.681 1116.16 313.544 1123.31 312.859C1170.56 309.023 1215.68 292.311 1255.36 263.27C1298.77 231.49 1336.21 184.23 1363.52 130.258" stroke="#C7E7F2" stroke-miterlimit="10"/>
<path d="M-151.893 516.418C-106.133 442.994 -52.9066 374.502 9.06669 314.776C48.1067 277.106 94.08 245.051 141.76 234.64C176 227.243 210.987 229.024 239.68 244.777C292.587 274.092 314.133 343.406 369.28 369.707C404.48 386.693 444.48 383.817 482.773 369.433C491.733 366.146 500.48 362.036 508.907 357.653C551.573 335.187 591.787 301.078 638.08 277.791C669.333 262.174 701.333 252.585 732.267 247.654C754.667 244.092 776.853 242.859 797.867 243.544C846.827 245.051 891.733 256.421 940.16 267.928C954.453 271.352 969.067 274.914 984.213 278.338C1023.04 287.106 1062.83 296.42 1102.83 297.242C1110.08 297.379 1117.23 297.379 1124.37 296.968C1170.99 294.229 1215.89 279.571 1255.79 252.037C1299.2 222.038 1337.39 176.148 1364.37 122.724" stroke="#C7E7F2" stroke-miterlimit="10"/>
<path d="M-142.4 508.884C-97.3866 436.145 -45.3332 368.063 15.4668 308.749C55.1468 269.982 102.187 237.243 150.827 227.243C184.853 220.257 219.307 222.312 247.893 237.928C300.16 266.558 323.093 333.406 377.493 359.707C412.373 376.694 451.733 375.05 489.92 361.625C498.773 358.475 507.52 354.776 515.947 350.529C558.507 329.297 598.613 296.283 644.373 272.996C675.2 257.38 706.773 247.106 737.28 241.216C759.36 236.969 781.227 234.914 802.027 234.64C850.347 234.092 895.147 242.859 943.147 252.722C957.333 255.599 971.947 258.75 986.88 261.9C1025.6 269.982 1064.85 279.16 1104.32 280.667C1111.47 280.941 1118.61 281.078 1125.65 280.804C1171.73 279.297 1216.32 266.558 1256.43 240.531C1299.84 212.312 1338.67 167.655 1365.44 114.916" stroke="#C7E7F2" stroke-miterlimit="10"/>
<path d="M-132.8 501.213C-88.5334 429.296 -37.6534 361.625 22.0799 302.722C62.3999 262.996 110.507 229.572 160 219.846C193.813 213.271 227.733 215.737 256.107 230.942C307.84 259.024 332.053 323.407 385.6 349.571C420.053 366.557 458.88 366.009 496.96 353.817C505.813 350.941 514.453 347.516 522.88 343.543C565.227 323.544 605.333 291.626 650.56 268.339C681.067 252.722 712.107 241.764 742.08 235.051C763.84 230.12 785.28 227.243 805.973 226.01C853.76 223.271 898.347 229.572 945.813 237.791C959.893 240.257 974.4 242.86 989.227 245.736C1027.73 252.996 1066.56 262.174 1105.6 264.366C1112.64 264.777 1119.68 265.051 1126.72 264.914C1172.27 264.503 1216.43 253.681 1256.75 229.161C1300.16 202.86 1339.63 159.436 1366.19 107.245" stroke="#C7E7F2" stroke-miterlimit="10"/>
<path d="M-123.307 493.678C-79.7866 422.446 -30.1867 355.187 28.5867 296.831C69.5467 256.01 118.72 221.901 169.173 212.586C202.667 206.422 236.16 209.298 264.32 224.23C315.52 251.627 341.013 313.544 393.707 339.571C427.84 356.694 466.027 357.242 503.893 346.009C512.64 343.406 521.28 340.119 529.707 336.42C571.84 317.653 611.947 286.832 656.747 263.544C686.827 247.928 717.44 236.421 746.987 228.75C768.32 223.134 789.547 219.435 810.027 217.38C857.173 212.586 901.547 216.284 948.693 222.723C962.667 224.641 977.067 226.832 991.787 229.435C1030.08 235.873 1068.48 245.051 1106.99 248.065C1114.03 248.613 1120.96 249.024 1127.89 249.161C1172.8 249.846 1216.75 241.079 1257.28 218.065C1300.69 193.545 1340.8 151.491 1367.15 99.8475" stroke="#C7E7F2" stroke-miterlimit="10"/>
<path d="M-113.707 486.145C-71.0399 415.734 -22.5065 348.886 35.0935 290.941C76.6935 249.161 126.933 214.367 178.24 205.326C211.52 199.573 244.48 202.723 272.427 217.517C322.987 244.366 349.867 303.818 401.813 329.708C435.627 346.831 473.28 348.475 510.933 338.338C519.68 336.009 528.214 332.996 536.64 329.571C578.56 312.037 618.667 282.311 662.933 258.887C692.587 243.271 722.774 231.079 751.894 222.449C772.907 216.285 793.814 211.627 813.974 208.613C860.587 201.627 904.747 202.723 951.467 207.655C965.44 209.161 979.733 210.942 994.24 213.134C1032.32 218.887 1070.29 228.065 1108.27 231.627C1115.2 232.312 1122.03 232.86 1128.96 233.134C1173.33 234.915 1216.85 228.065 1257.71 206.696C1301.12 183.956 1341.97 143.272 1368 92.1765" stroke="#C7E7F2" stroke-miterlimit="10"/>
<path d="M-104.213 478.61C-62.1867 409.022 -15.04 342.447 41.6 284.914C83.84 242.037 135.147 206.558 187.413 197.928C220.48 192.449 252.8 196.148 280.64 210.531C330.667 236.695 358.827 293.681 409.92 319.571C443.307 336.694 480.427 339.57 517.973 330.53C526.613 328.475 535.147 325.735 543.573 322.447C585.28 306.146 625.387 277.516 669.12 254.092C698.453 238.476 728.107 225.736 756.8 216.147C777.493 209.298 797.973 203.819 818.027 199.846C864 190.805 907.947 189.298 954.347 192.449C968.213 193.408 982.4 194.778 996.8 196.695C1034.67 201.627 1072.32 210.805 1109.76 215.188C1116.59 216.01 1123.41 216.695 1130.13 217.106C1173.97 220.12 1217.17 215.188 1258.24 195.326C1301.65 174.367 1343.15 134.915 1368.96 84.505" stroke="#C7E7F2" stroke-miterlimit="10"/>
<path d="M-94.6133 471.076C-53.3333 402.173 -7.35995 336.009 48.2134 279.023C91.0934 235.051 143.467 198.887 196.693 190.668C229.547 185.6 261.333 189.572 288.96 203.819C338.347 229.435 367.893 283.955 418.133 309.708C451.2 326.831 487.68 330.941 525.12 322.859C533.76 321.078 542.293 318.475 550.613 315.461C592.107 300.393 632.213 272.859 675.413 249.435C704.32 233.682 733.547 220.394 761.707 209.983C781.973 202.449 802.24 196.148 822.08 191.216C867.52 179.984 911.253 176.011 957.227 177.518C970.987 177.929 985.067 178.888 999.36 180.531C1037.12 184.641 1074.24 193.819 1111.15 198.887C1117.97 199.846 1124.69 200.668 1131.31 201.353C1174.51 205.463 1217.39 202.449 1258.77 184.23C1302.08 165.052 1344.32 126.97 1369.92 77.108" stroke="#C7E7F2" stroke-miterlimit="10"/>
<path d="M-85.1201 463.542C-44.5868 395.461 0.10653 329.571 54.6132 273.133C98.0265 228.065 151.467 191.216 205.653 183.408C238.187 178.751 269.547 183.134 297.067 196.97C345.92 221.901 376.853 273.955 426.24 299.708C458.987 316.968 494.827 322.037 532.16 315.051C540.693 313.407 549.227 311.215 557.547 308.475C598.933 294.64 639.04 268.202 681.6 244.777C710.186 229.024 738.88 215.189 766.613 203.682C786.56 195.463 806.507 188.34 826.027 182.449C870.827 169.162 914.453 163.135 960 162.45C973.653 162.176 987.627 162.998 1001.81 164.23C1039.36 167.518 1076.05 176.696 1112.43 182.586C1119.15 183.682 1125.76 184.641 1132.37 185.463C1175.04 190.668 1217.6 189.71 1259.09 172.997C1302.4 155.6 1345.28 118.888 1370.67 69.574" stroke="#C7E7F2" stroke-miterlimit="10"/>
<path d="M-75.6265 455.871C-35.8398 388.611 7.6802 323.133 61.1202 266.969C105.174 220.805 159.68 183.271 214.827 175.874C247.147 171.628 277.974 176.285 305.28 189.983C353.6 214.367 385.814 263.818 434.347 289.571C466.667 306.831 502.08 313.133 539.094 307.242C547.627 305.873 556.054 303.955 564.374 301.352C605.547 288.749 645.654 263.407 687.787 239.983C715.947 224.23 744.214 209.709 771.52 197.381C791.147 188.477 810.774 180.532 830.08 173.819C874.347 158.34 917.654 149.299 962.774 147.381C976.427 146.833 990.294 146.97 1004.27 147.929C1041.6 150.395 1077.87 159.573 1113.81 166.148C1120.43 167.381 1127.04 168.477 1133.55 169.573C1175.68 175.874 1217.81 176.833 1259.63 161.765C1302.93 146.148 1346.56 110.669 1371.63 62.0398" stroke="#C7E7F2" stroke-miterlimit="10"/>
<path d="M-66.0266 448.336C-26.9866 381.762 15.2534 316.694 67.7334 261.078C112.427 213.819 168 175.6 224 168.614C256.107 164.641 286.4 169.847 313.493 183.271C361.173 206.969 394.773 254.092 442.56 279.708C474.56 296.968 509.333 304.366 546.24 299.571C554.667 298.475 563.093 296.694 571.413 294.503C612.373 283.133 652.48 259.024 694.08 235.325C721.92 219.572 749.653 204.504 776.533 191.079C795.733 181.627 815.147 172.723 834.24 165.052C877.867 147.518 921.067 135.737 965.76 132.313C979.307 131.217 993.067 130.943 1006.93 131.628C1044.05 133.409 1079.89 142.587 1115.31 149.71C1121.81 151.08 1128.32 152.313 1134.83 153.545C1176.32 160.943 1218.24 163.819 1260.27 150.395C1303.57 136.422 1347.84 102.45 1372.69 54.3685" stroke="#C7E7F2" stroke-miterlimit="10"/>
<path d="M-56.5332 440.802C-18.2399 375.05 22.7201 310.256 74.2401 255.188C119.467 206.832 176.213 167.792 233.173 161.491C265.067 157.929 294.827 163.408 321.707 176.559C368.853 199.709 403.733 244.229 450.667 269.845C482.347 287.242 516.48 295.599 553.28 291.9C561.707 291.078 570.027 289.571 578.347 287.516C619.093 277.38 659.2 254.366 700.267 230.668C727.68 214.915 754.987 199.161 781.334 184.915C800.214 174.778 819.2 165.052 838.187 156.422C881.28 136.833 924.16 122.45 968.534 117.381C981.974 115.875 995.627 115.053 1009.39 115.464C1046.4 116.423 1081.71 125.738 1116.59 133.546C1123.09 135.052 1129.49 136.559 1135.89 137.792C1176.85 146.285 1218.35 151.08 1260.69 139.162C1304 126.97 1348.91 94.368 1373.55 46.8344" stroke="#C7E7F2" stroke-miterlimit="10"/>
<path d="M-46.9333 433.268C-9.38668 368.201 30.2933 303.818 80.7466 249.298C126.507 199.846 184.427 160.121 242.347 154.23C273.92 150.943 303.253 156.97 329.92 169.847C376.533 192.312 412.693 234.503 458.773 259.983C490.027 277.38 523.627 286.969 560.32 284.366C568.64 283.681 576.96 282.448 585.173 280.667C625.707 271.763 665.813 249.846 706.347 226.147C733.333 210.394 760.213 194.093 786.133 178.888C804.693 168.066 823.36 157.518 842.027 147.929C884.48 126.149 927.253 109.299 971.2 102.45C984.64 100.395 998.08 99.2996 1011.73 99.2996C1048.53 99.4366 1083.41 108.752 1117.87 117.245C1124.27 118.888 1130.67 120.532 1136.96 122.039C1177.39 131.628 1218.56 138.34 1261.12 128.066C1304.43 117.656 1350.08 86.423 1374.4 39.3003" stroke="#C7E7F2" stroke-miterlimit="10"/>
<path d="M-37.4399 425.734C-0.639939 361.488 37.7601 297.242 87.2534 243.271C133.653 192.586 192.64 152.176 251.413 146.833C282.773 143.957 311.573 150.395 338.133 162.998C384.107 184.915 421.653 224.504 466.987 249.983C497.92 267.38 530.88 278.065 567.36 276.558C575.68 276.147 583.893 275.188 592.107 273.681C632.427 266.01 672.533 245.188 712.64 221.49C739.307 205.737 765.653 188.751 791.147 172.586C809.387 161.08 827.733 149.847 846.187 139.299C888.107 115.601 930.56 95.875 974.187 87.519C987.52 84.9163 1000.96 83.4094 1014.4 83.1355C1050.99 82.3136 1085.44 91.7655 1119.36 101.08C1125.65 102.861 1131.95 104.642 1138.24 106.286C1178.13 116.971 1218.88 125.601 1261.65 116.971C1304.96 108.204 1351.25 78.341 1375.36 31.9032" stroke="#C7E7F2" stroke-miterlimit="10"/>
<path d="M-27.8398 418.2C8.21349 354.776 45.3335 290.804 93.8668 237.38C140.8 185.6 200.96 144.505 260.694 139.573C291.84 136.97 320.107 143.82 346.454 156.148C391.894 177.381 430.72 214.641 475.2 239.983C505.813 257.517 538.24 269.298 574.507 268.75C582.72 268.613 590.934 267.928 599.147 266.558C639.254 260.12 679.36 240.394 718.934 216.558C745.174 200.805 771.094 183.271 796.16 166.148C813.974 153.956 832.107 141.765 850.347 130.395C891.734 104.505 933.974 82.3135 977.067 72.1766C990.294 69.026 1003.63 67.1082 1016.96 66.5602C1053.33 65.0534 1087.47 74.3684 1120.75 84.3683C1127.04 86.286 1133.23 88.2038 1139.41 89.9846C1178.67 101.765 1219.2 112.313 1262.19 105.327C1305.49 98.2037 1352.43 69.8479 1376.32 23.958" stroke="#C7E7F2" stroke-miterlimit="10"/>
<path d="M-18.3467 410.529C16.96 347.79 52.8 284.229 100.267 231.353C147.733 178.477 209.067 136.559 269.653 132.176C390.187 123.546 462.507 259.024 581.333 261.078C655.893 262.311 731.627 210.668 800.853 159.984C870.08 109.299 943.893 55.3275 1019.31 50.396C1062.29 47.6563 1101.65 61.3548 1140.48 74.2314C1179.2 87.1079 1219.31 99.5735 1262.61 94.2311C1305.92 88.8887 1353.49 61.9027 1377.17 16.5608" stroke="#C7E7F2" stroke-miterlimit="10"/>
</g>
</svg>
